<?xml version="1.0" standalone="no"?>
<!DOCTYPE svg PUBLIC "-//W3C//DTD SVG 20010904//EN"
 "http://www.w3.org/TR/2001/REC-SVG-20010904/DTD/svg10.dtd">
<svg version="1.0" xmlns="http://www.w3.org/2000/svg"
 width="441.000000pt" height="441.000000pt" viewBox="0 0 441.000000 441.000000"
 preserveAspectRatio="xMidYMid meet">

<g transform="translate(0.000000,441.000000) scale(0.100000,-0.100000)"
fill="rgb(228 30 35)" stroke="none">
<path d="M1495 4393 c-682 -81 -1232 -541 -1419 -1184 -62 -217 -61 -186 -61
-1404 l0 -1110 23 -80 c81 -282 286 -491 562 -577 l75 -23 1500 -3 c1342 -2
1508 -1 1579 13 288 58 519 268 617 560 l24 70 3 1510 c2 1067 0 1529 -8 1574
-45 262 -244 501 -504 605 -142 57 -124 56 -1289 55 -590 -1 -1085 -4 -1102
-6z m2147 -464 c166 -56 284 -195 308 -361 13 -87 12 -2644 0 -2731 -6 -38
-22 -94 -37 -125 -39 -80 -132 -171 -218 -213 l-70 -34 -1415 0 -1415 0 -67
32 c-136 64 -239 198 -263 341 l-7 42 1487 0 1487 0 39 39 39 39 -2 1241 -3
1241 -33 32 -32 33 -878 3 c-924 3 -972 1 -1099 -42 -282 -96 -462 -282 -534
-552 -30 -114 -30 -291 0 -398 40 -144 113 -268 213 -362 178 -168 402 -244
658 -222 278 24 522 192 645 443 59 119 75 193 75 341 0 177 -38 305 -132 442
l-29 42 254 0 255 0 26 -82 c75 -236 83 -482 24 -707 -158 -606 -756 -990
-1397 -895 -117 17 -274 65 -373 115 -287 143 -522 408 -621 699 -185 544 31
1110 548 1435 133 83 319 152 470 174 33 5 505 9 1048 10 975 1 988 1 1049
-20z"/>
</g>
</svg>
