<?xml version="1.0" encoding="UTF-8"?>
<!DOCTYPE svg PUBLIC "-//W3C//DTD SVG 1.1//EN" "http://www.w3.org/Graphics/SVG/1.1/DTD/svg11.dtd">
<!-- Creator: CorelDRAW -->
<svg xmlns="http://www.w3.org/2000/svg" xml:space="preserve" width="71.9593mm" height="19.1907mm" version="1.1" style="shape-rendering:geometricPrecision; text-rendering:geometricPrecision; image-rendering:optimizeQuality; fill-rule:evenodd; clip-rule:evenodd"
viewBox="0 0 6663.45 1777.06"
 xmlns:xlink="http://www.w3.org/1999/xlink"
 xmlns:xodm="http://www.corel.com/coreldraw/odm/2003">
 <defs>
  <style type="text/css">
   <![CDATA[
    .fil1 {fill:#FEFEFE}
    .fil0 {fill:#EB0005}
    .fil2 {fill:black;fill-rule:nonzero}
   ]]>
  </style>
 </defs>
 <g id="Layer_x0020_1">
  <metadata id="CorelCorpID_0Corel-Layer"/>
  <path class="fil0" d="M666.21 0l782.74 0c180.54,0 328.17,147.68 328.17,328.09l0 1120.8c0,180.44 -147.62,328.17 -328.17,328.17l-1120.86 0c-180.39,0 -328.09,-147.73 -328.09,-328.17l0 -782.72c0,-366.35 299.8,-666.17 666.21,-666.17z"/>
  <path class="fil1" d="M680.85 182.91l-23.87 1.4 -23.54 2.36 -23.83 3.5 -23.37 4.65 -23.06 5.72 -23.02 6.79 -22.69 7.85 -22.46 9.15 -21.96 10.2 -21.77 11.34 -21.2 12.21 -20.89 13.45 -20.08 14.52 -19.71 15.71 -19 16.46 -18.04 17.58 -18.04 17.96 -16.79 18.82 -15.8 19.29 -14.49 20.2 -13.38 20.48 -12.42 21.12 -11.02 21.25 -10.09 21.78 -8.61 22.72 -7.55 22.44 -6.41 22.84 -5.35 23.02 -3.96 23.37 -2.83 23.14 -1.91 23.48 -0.69 23.66 0.69 23.56 1.91 23.31 2.83 23.44 3.96 23.25 5.35 23.31 6.41 22.9 7.43 22.56 8.69 22.48 10.14 22.13 11.02 21.36 12.23 21.48 13.3 20.84 14.43 20.19 15.97 19.76 16.95 19.19 18.04 18.35 18.77 17.42 19.18 16.05 19.99 15.29 20.84 13.81 21.13 12.93 21.84 11.51 21.9 10.98 22.84 9.33 22.9 8.2 23.33 7.61 23.31 5.91 23.71 5.02 24.16 4.07 23.93 2.59 24.09 1.72 24.44 0.64 24.14 -0.47 24.14 -1.89 24.21 -2.59 23.87 -4.07 23.91 -5.02 23.35 -5.91 23.21 -7.61 22.98 -8.2 22.52 -9.33 22.09 -10.74 21.84 -11.75 21.3 -12.93 20.66 -13.81 19.83 -15.29 19.56 -16.05 18.62 -17.23 13.79 -13.87 12.8 -14.28 12.45 -14.58 11.51 -14.87 10.91 -15.06 10.19 -15.7 9.47 -15.83 8.92 -16.23 8.26 -16.18 7.5 -16.46 7.03 -16.99 6.08 -16.77 5.61 -17.16 4.9 -17.07 4.48 -17.54 3.48 -17.4 3.07 -17.53 2.21 -17.65 1.74 -17.88 1.14 -17.77 0.5 -17.77 -0.23 -17.82 -0.76 -17.71 -1.37 -17.83 -1.82 -17.82 -2.64 -17.46 -3.33 -17.6 -3.63 -17.4 -4.57 -17.34 -4.85 -17.3 -5.57 -17 -9.02 -24.56 -202.72 0 19.93 30.28 7.23 11.93 6.56 12.09 6.19 12.21 5.36 12.7 4.86 12.91 4.25 12.94 4 12.86 2.84 13.41 2.53 13.4 1.86 13.33 1.47 13.51 0.69 13.33 0.24 13.69 -0.49 13.58 -0.81 13.45 -1.74 13.52 -2.09 13.33 -2.55 13.4 -3.24 12.98 -4.13 13.21 -4.37 12.82 -5.12 12.92 -5.64 12.82 -6.19 12.09 -6.71 12.46 -7.26 11.68 -7.8 11.7 -8.43 11.49 -9.06 10.88 -9.67 10.74 -10.04 10.56 -12.45 11.45 -12.8 10.56 -13.39 10.32 -13.7 9.15 -13.77 8.45 -14.27 7.84 -14.76 6.91 -14.83 6.43 -15.02 5.6 -15.28 4.56 -15.37 4.36 -15.49 3.19 -15.74 2.66 -15.96 1.84 -15.68 1 -16.04 0.47 -15.63 -0.47 -15.96 -1.19 -15.93 -1.66 -15.67 -2.66 -15.81 -3.19 -15.09 -4.36 -15.33 -4.56 -15.01 -5.6 -14.94 -6.43 -14.64 -6.91 -14.2 -7.84 -13.83 -8.45 -13.62 -9.15 -13.4 -10.32 -12.87 -10.56 -12.39 -11.45 -11.45 -11.75 -10.56 -12.28 -10.02 -12.68 -9.26 -12.82 -8.41 -13.21 -7.8 -13.69 -7.03 -13.99 -6.32 -14.47 -5.57 -14.52 -4.69 -14.81 -4.23 -14.64 -3.06 -15.1 -2.78 -15.29 -1.76 -15.28 -1.1 -15.47 -0.45 -15.34 0.45 -15.29 1.1 -15.51 1.76 -15.18 2.78 -15.58 3.06 -14.99 4.23 -14.82 4.69 -15.18 5.57 -14.62 6.32 -14.47 7.03 -14.22 7.8 -13.52 8.41 -13.8 9.34 -13.35 9.94 -12.86 10.68 -12.63 11.33 -11.98 12.22 -10.51 12.79 -10.39 13.23 -9.32 13.58 -8.85 13.73 -8.57 14.19 -7.49 14.27 -6.89 14.74 -6.26 14.76 -5.49 15.33 -5.08 15.02 -4.37 15.18 -3.59 15.62 -3.01 15.49 -1.94 15.45 -1.95 15.47 -1.01 527.4 0 155.39 0.24 9.05 1 8.25 2.96 8.27 4.48 7.54 6.49 6.32 7.73 4.96 8.32 3.01 9.21 0.95 10.39 0 147.73 0.07 816.07 -0.87 10.27 -3.07 9.08 -4.98 8.5 -6.26 7.8 -7.57 6.19 -8.21 4.85 -8.3 3.07 -9.05 0.77 -1186 0c9.69,92.84 81.88,166.2 176.45,169.45l1059.01 0 17.15 -0.66 16.95 -2.82 16.69 -4.67 15.99 -6.19 15.19 -7.2 14.68 -8.92 13.67 -10.27 12.63 -11.28 11.53 -12.4 10.54 -13.33 8.87 -14.29 7.95 -14.62 6.08 -15.83 4.69 -15.93 2.82 -16.59 0.9 -16.7 0 -1067.44 -1.02 -16.71 -2.88 -16.7 -4.61 -16.18 -6.13 -15.65 -7.91 -14.64 -8.98 -14.69 -10.55 -12.86 -11.47 -12.52 -12.68 -11.33 -13.59 -10.04 -14.75 -8.85 -15.26 -7.56 -15.93 -6.03 -16.66 -4.65 -16.85 -2.66 -17.09 -0.94 -736.82 0z"/>
  <path class="fil2" d="M2636.21 178.89l-92.81 0 -133.39 421.64 -133.34 -421.64 -91.06 0 190.34 579.34 68.18 0 192.09 -579.34zm182.95 166.9l-82.93 0 0 412.44 82.93 0 0 -412.44zm2.47 -169.14l-87.9 0 0 87.89 87.9 0 0 -87.89zm493.6 581.59l0 -263.48c0,-46.5 -9.81,-85.57 -41.5,-116.44 -24.36,-23.6 -59.26,-37.35 -101.68,-37.35 -41.46,0 -81.29,15.41 -109.85,46.27l0 -41.37 -81.34 0 0 412.38 83 0 0 -251.36c0,-63.38 39.09,-91.78 85.44,-91.78 46.35,0 83.06,27.5 83.06,91.78l0 251.36 82.87 0zm469.25 -412.44l-88.77 0 -95.92 290.39 -98.41 -290.39 -87.72 0 143.83 392.85 -22.73 64.44c-12.17,33.24 -24.47,43.69 -59.31,43.69l-21.24 0 0 74.9 33.41 0c31.65,0 61.85,-7.2 84.58,-30.04 12.15,-12.21 21.89,-28.45 29.97,-51.16l182.31 -494.67zm261.11 412.44l0 -70.76 -36.79 0c-33.28,0 -44.67,-16.3 -44.67,-48.12l0 -460.47 -82.95 0 0 465.56c0,60.89 34.13,113.79 113.08,113.79l51.33 0zm724.47 -224.51l0 -88.66 -211.41 0 0 74.84 123.62 0 0 32.46c0,37.49 -8.09,66.7 -29.27,91.19 -22.6,25.97 -55.97,40.61 -94.35,40.61 -33.96,0 -64.96,-12.93 -85.43,-34.88 -28.4,-30.92 -34.96,-64.27 -34.96,-180.6 0,-116.4 6.56,-149.04 34.96,-179.78 20.47,-22 51.48,-35.83 85.43,-35.83 65.07,0 107.44,37.43 121.94,100.93l88.89 0c-16.48,-99.34 -87.91,-179.85 -210.82,-179.85 -61.89,0 -112.12,21.96 -152.08,61.8 -56.97,56.95 -56.18,121.23 -56.18,232.72 0,111.49 -0.79,175.81 56.18,232.55 39.96,39.88 91.77,61.85 152.08,61.85 60.99,0 115.53,-19.48 159.56,-65.75 38.15,-40.86 51.85,-88.77 51.85,-163.61zm439.41 -153.7c-28.56,-28.51 -58.61,-39.07 -98.55,-39.07 -46.47,0 -88.59,20.36 -109.79,49.69l0 -44.86 -81.44 0 0 412.44 83.1 0 0 -250.49c0,-57.06 37.42,-92.65 82.16,-92.65 28.32,0 43.08,8.84 61.85,27.55l62.67 -62.62zm392.66 378.21l0 -275.69c0,-93.6 -56.95,-141.59 -170.03,-141.59 -68.34,0 -109.06,13.75 -148.14,59.38l54.59 51.18c22.85,-29.22 44.74,-39.9 90.42,-39.9 63.98,0 90.25,25.26 90.25,77.38l0 29.26 -109.02 0c-94.3,0 -142.35,49.52 -142.35,118.75 0,35 11.39,66.76 32.57,88.78 25.22,25.19 59.33,37.3 110.49,37.3 51.18,0 79.74,-12.11 109.79,-42.44l0 37.6 81.44 0zm-82.91 -148.79c0,29.1 -5.61,48.87 -17.82,60.92 -22.21,21.18 -45.74,23.6 -77.45,23.6 -51.81,0 -75.65,-21.01 -75.65,-58.49 0,-37.55 25.13,-59.56 74,-59.56l96.92 0 0 33.52zm418.88 -192.06l0 -63.38 -82.47 0 0 -59.86c0,-30.34 14.83,-48.38 45.74,-48.38l36.73 0 0 -70.77 -52.07 0c-77.42,0 -113.19,55.37 -113.19,114.97l0 64.04 -47.16 0 0 63.38 47.16 0 0 340.85 82.79 0 0 -340.85 82.47 0zm201.43 -71.59l-82.87 0 0 412.44 82.87 0 0 -412.44zm2.66 -169.14l-87.83 0 0 87.89 87.83 0 0 -87.89zm521.27 581.59l-161.06 -250.49 143.18 -161.88 -101.04 0 -160.24 190.28 0 -357.24 -82.87 0 0 579.34 82.87 0 0 -121.23 61.25 -69.23 115.63 190.46 102.29 0zm-4044.3 677.97c0,-49.69 -15.5,-91.06 -47.26,-118.75 -24.26,-22.13 -54.43,-35 -108.06,-43.14l-66.05 -9.86c-26.73,-4.01 -50.36,-13.92 -64.98,-26.67 -15.41,-13.82 -22.04,-32.59 -22.04,-53.76 0,-51.24 37.56,-90.31 105.75,-90.31 48.84,0 90.35,10.62 126.21,44.74l56.1 -55.29c-49.67,-46.27 -103.36,-65.87 -179.81,-65.87 -120.4,0 -193.57,69.04 -193.57,169.91 0,47.35 13.79,83.87 42.36,110.79 25.18,23.68 62.51,39.78 109.8,46.33l68.21 9.62c34.18,5.02 48.94,10.69 63.46,24.44 15.53,14.04 22.77,35 22.77,60.26 0,56.13 -43.84,88.64 -119.45,88.64 -59.41,0 -105.82,-12.86 -148.13,-55.41l-58.55 57.84c55.37,56.18 117.91,76.42 205.04,76.42 121.09,0 208.21,-63.38 208.21,-169.91zm310.56 165.08l0 -70.82 -34.1 0c-31.06,0 -45.62,-17.71 -45.62,-47.98l0 -222.05 79.72 0 0 -63.44 -79.72 0 0 -126.07 -83.03 0 0 126.07 -47.12 0 0 63.44 47.12 0 0 226.53c0,59.07 35.94,114.32 113.21,114.32l49.54 0zm466.06 0l0 -412.43 -82.95 0 0 251.49c0,63.44 -39.07,91.78 -85.48,91.78 -46.39,0 -82.85,-27.73 -82.85,-91.78l0 -251.49 -83.06 0 0 263.65c0,46.33 9.74,85.46 41.51,116.32 24.39,23.49 59.4,37.29 101.65,37.29 41.6,0 81.38,-15.45 109.87,-46.37l0 41.54 81.31 0zm479.77 0l0 -579.1 -82.95 0 0 208.16c-29.99,-35.82 -64.19,-46.32 -108.09,-46.32 -41.54,0 -77.41,13.8 -100.18,36.65 -41.38,41.36 -46.42,111.36 -46.42,174.05 0,62.62 5.04,133.39 46.42,174.88 22.77,22.72 59.43,36.52 100.99,36.52 44.63,0 78,-11.37 109,-48.8l0 43.97 81.24 0zm-82.95 -206.56c0,73.13 -10.58,137.4 -85.37,137.4 -74.92,0 -86.28,-64.27 -86.28,-137.4 0,-73.06 11.36,-136.64 86.28,-136.64 74.78,0 85.37,63.58 85.37,136.64zm327.71 -205.92l-82.84 0 0 412.44 82.84 0 0 -412.44zm2.43 -169.11l-87.58 0 0 87.83 87.58 0 0 -87.83zm484.06 375.03c0,-69.07 -9.75,-121.46 -48.78,-161.78 -26.85,-27.74 -67.71,-48.92 -123.89,-48.92 -55.98,0 -95.98,21.18 -122.65,48.92 -39.05,40.32 -48.92,92.71 -48.92,161.78 0,70 9.87,121.88 48.92,162.6 26.67,27.74 66.67,48.8 122.65,48.8 56.18,0 97.04,-21.06 123.89,-48.8 39.03,-40.72 48.78,-92.6 48.78,-162.6zm-83.13 0c0,44.67 -3.25,87.77 -28.34,113.07 -15.7,15.53 -36.57,24.33 -61.2,24.33 -24.26,0 -44.55,-8.8 -59.96,-24.33 -25.26,-25.31 -28.64,-68.4 -28.64,-113.07 0,-44.81 3.38,-87.94 28.64,-113.08 15.41,-15.59 35.7,-23.56 59.96,-23.56 24.63,0 45.5,7.96 61.2,23.56 25.09,25.14 28.34,68.27 28.34,113.08z"/>
 </g>
</svg>
